<svg width="49" height="46" viewBox="0 0 49 46" fill="none" xmlns="http://www.w3.org/2000/svg">
<path d="M24.7276 4.9977C30.3844 10.6545 30.3844 19.826 24.7276 25.4828C19.0708 31.1396 9.89933 31.1396 4.24253 25.4828C-1.41426 19.826 -1.41426 10.6545 4.24253 4.9977C9.89933 -0.659095 19.0708 -0.659095 24.7276 4.9977Z" fill="white"/>
<path d="M44.2372 4.9977C49.894 10.6545 49.894 19.826 44.2372 25.4828C38.5804 31.1396 29.4089 31.1396 23.7521 25.4828C18.0953 19.826 18.0953 10.6545 23.7521 4.9977C29.4089 -0.659095 38.5804 -0.659095 44.2372 4.9977Z" fill="white"/>
<path d="M3.75479 24.995L24.2399 4.50996L44.7249 24.995L24.2399 45.4801L3.75479 24.995Z" fill="white"/>
</svg>
