<svg width="174" height="295" viewBox="0 0 174 295" fill="none" xmlns="http://www.w3.org/2000/svg">
<path fill-rule="evenodd" clip-rule="evenodd" d="M110.241 124.09L132.493 139.579L139.371 210.509L127.604 232.298L117.013 229.33L114.728 232.942L103.601 236.28L110.458 240.395V241.236L119.109 247.173L125.5 309.425H110.458V309.925H40.958V309.425H24.6523L32.9424 244.747L43.8906 237.234L47.291 234.514L8 213.389L15.5957 132.074L63 109.619L51.1797 73.0518L79.9404 0L103.84 71.6963L103.557 72.5801L165.644 65.1758L126.651 119.076L110.241 124.09Z" fill="#053585"/>
<path d="M68.2148 80.8929L80.7863 119.786L87.8577 132.75L130.286 119.786L157.001 82.8571L114.179 87.9643L87.8577 129.607L103.965 79.3214L87.8577 31L68.2148 80.8929Z" fill="#E3D5B2"/>
<path d="M68.6067 233.714L42.2853 214.464L40.7139 157.107L86.6782 132.75L133.428 151.607L130.285 214.464L118.107 233.714L94.5353 240.786L68.6067 233.714Z" fill="#F7DC99"/>
<path d="M61.5357 236.072L25 216.429L31.6786 144.929L76.4643 123.715H93.3571L133.429 151.608L139.714 216.429L129.107 236.072L133.429 151.608L102.786 188.929L61.5357 183.822V236.072Z" fill="#584D3B"/>
<path d="M117.715 186.571L109.465 195.607H111.429L120.072 192.857L130.679 192.464V189.714L125.179 186.571H117.715Z" fill="#2B3B4A"/>
<path d="M113.393 180.286L107.893 187.751H109.464L119.678 180.286H128.714L125.178 177.144H118.107L113.393 180.286Z" fill="#2B3B4A"/>
<path d="M77.2496 186.179L62.7139 190.893L63.8924 192.464H73.321C77.1186 192.595 84.9496 192.936 85.8924 193.25C86.8353 193.564 90.7377 195.476 92.571 196.393L94.1424 195.607L83.1424 186.179H77.2496Z" fill="#2B3B4A"/>
<ellipse cx="80.3927" cy="197.571" rx="7.07143" ry="11" fill="#2B3B4A"/>
<ellipse cx="118.892" cy="198.357" rx="6.28571" ry="11" fill="#2B3B4A"/>
<path d="M96.3571 216L94 217.964L95.1786 218.357L96.3571 217.571H103.036L105 217.964H106.571L105 216H96.3571Z" fill="#9A7C3E"/>
<path d="M68.9994 243.142C70.178 239.868 72.5352 233.164 72.5352 232.535H92.9637L94.928 240.785L100.035 245.499L120.071 259.249L125.178 309H42.2852L48.9637 256.892L68.9994 243.142Z" fill="#F7DC99"/>
<path d="M57.5 309.5V251L62.5 247L69.5 261L101 263L106 249.5L111 252.5V309.5H57.5Z" fill="#C71F5D"/>
</svg>
